<svg xmlns="http://www.w3.org/2000/svg" width="1024" height="1024" viewBox="0 0 1024 1024">
  <path fill="#F8FAED" fill-rule="nonzero" d="M512.00,558.00 L452.00,662.00 L452.00,842.00 L572.00,842.00 L572.00,662.00 Z M472.16,535.00 L352.10,535.04 L196.21,625.04 L256.21,728.96 L412.10,638.96 Z M472.16,489.00 L412.10,385.04 L256.21,295.04 L196.21,398.96 L352.10,488.96 Z M512.00,466.00 L572.00,362.00 L572.00,182.00 L452.00,182.00 L452.00,362.00 Z M551.84,489.00 L671.90,488.96 L827.79,398.96 L767.79,295.04 L611.90,385.04 Z M551.84,535.00 L611.90,638.96 L767.79,728.96 L827.79,625.04 L671.90,535.04 Z"/>
</svg>
